solid Body8_lowres_mm_2
  facet normal 0.090597 -0.426548 -0.899916
    outer loop
      vertex 1.716973 -138.165222 -271.140503
      vertex -26.263828 -28.904772 -325.745331
      vertex 25.670515 -35.901981 -317.200378
    endloop
  endfacet
  facet normal 0.046903 -0.736203 0.675133
    outer loop
      vertex 31.046692 -186.600754 196.484192
      vertex -10.123329 -97.254494 296.772583
      vertex -19.957401 -215.828812 168.155670
    endloop
  endfacet
  facet normal 0.243206 -0.859723 0.449141
    outer loop
      vertex 31.046692 -186.600754 196.484192
      vertex -19.957401 -215.828812 168.155670
      vertex 18.044321 -243.985855 93.681374
    endloop
  endfacet
  facet normal -0.422184 -0.897978 0.124079
    outer loop
      vertex 18.044321 -243.985855 93.681374
      vertex -19.957401 -215.828812 168.155670
      vertex -18.272589 -251.801376 -86.450012
    endloop
  endfacet
  facet normal 0.158437 -0.987309 0.010894
    outer loop
      vertex 18.044321 -243.985855 93.681374
      vertex -18.272589 -251.801376 -86.450012
      vertex 29.904379 -243.885864 -69.741646
    endloop
  endfacet
  facet normal 0.300840 -0.826432 -0.475925
    outer loop
      vertex 29.904379 -243.885864 -69.741646
      vertex -18.272589 -251.801376 -86.450012
      vertex 1.716973 -138.165222 -271.140503
    endloop
  endfacet
  facet normal -0.396824 -0.761979 -0.511779
    outer loop
      vertex -18.272589 -251.801376 -86.450012
      vertex -33.232639 -146.823456 -231.150116
      vertex 1.716973 -138.165222 -271.140503
    endloop
  endfacet
  facet normal -0.609742 -0.473728 -0.635450
    outer loop
      vertex 1.716973 -138.165222 -271.140503
      vertex -33.232639 -146.823456 -231.150116
      vertex -26.263828 -28.904772 -325.745331
    endloop
  endfacet
  facet normal -0.851913 -0.249368 0.460500
    outer loop
      vertex -15.031105 -8.119514 335.961304
      vertex -38.021156 -32.749256 280.092896
      vertex -10.123329 -97.254494 296.772583
    endloop
  endfacet
  facet normal -0.548915 0.480798 -0.683758
    outer loop
      vertex -38.021156 -32.749256 280.092896
      vertex 9.796803 -1.459939 263.706726
      vertex -8.773604 -107.697723 203.911804
    endloop
  endfacet
  facet normal 0.424365 -0.344755 0.837292
    outer loop
      vertex -10.123329 -97.254494 296.772583
      vertex 37.669418 -37.986786 296.953247
      vertex -15.031105 -8.119514 335.961304
    endloop
  endfacet
  facet normal 0.771174 0.372747 0.516092
    outer loop
      vertex 4.337963 -12.179543 -263.498413
      vertex -0.000002 -125.401176 -175.242126
      vertex 37.038174 -157.637436 -207.304016
    endloop
  endfacet
  facet normal -0.347475 0.584724 0.733048
    outer loop
      vertex 4.337963 -12.179543 -263.498413
      vertex -30.806767 -22.923103 -271.587799
      vertex -0.000002 -125.401176 -175.242126
    endloop
  endfacet
  facet normal -0.530641 0.752665 0.389763
    outer loop
      vertex -0.000002 -125.401176 -175.242126
      vertex -24.448872 -150.744659 -159.587601
      vertex 26.829584 -203.858490 12.792320
    endloop
  endfacet
  facet normal 0.727607 0.663783 0.173145
    outer loop
      vertex -0.000002 -125.401176 -175.242126
      vertex 26.829584 -203.858490 12.792320
      vertex 37.038174 -157.637436 -207.304016
    endloop
  endfacet
  facet normal 0.998964 -0.013120 0.043579
    outer loop
      vertex 37.038174 -157.637436 -207.304016
      vertex 26.829584 -203.858490 12.792320
      vertex 29.904379 -243.885864 -69.741646
    endloop
  endfacet
  facet normal 0.987676 0.152086 -0.036963
    outer loop
      vertex 29.904379 -243.885864 -69.741646
      vertex 26.829584 -203.858490 12.792320
      vertex 31.046692 -186.600754 196.484192
    endloop
  endfacet
  facet normal 0.939842 -0.334773 0.068002
    outer loop
      vertex 29.904379 -243.885864 -69.741646
      vertex 31.046692 -186.600754 196.484192
      vertex 18.044321 -243.985855 93.681374
    endloop
  endfacet
  facet normal 0.371735 0.912531 0.170588
    outer loop
      vertex -24.448872 -150.744659 -159.587601
      vertex -9.518228 -191.953354 28.314707
      vertex 26.829584 -203.858490 12.792320
    endloop
  endfacet
  facet normal 0.149890 0.922252 -0.356348
    outer loop
      vertex 26.829584 -203.858490 12.792320
      vertex -9.518228 -191.953354 28.314707
      vertex 26.716208 -137.729156 183.891922
    endloop
  endfacet
  facet normal 0.996295 0.080441 -0.030430
    outer loop
      vertex 26.829584 -203.858490 12.792320
      vertex 26.716208 -137.729156 183.891922
      vertex 31.046692 -186.600754 196.484192
    endloop
  endfacet
  facet normal 0.988679 0.051273 -0.141014
    outer loop
      vertex 31.046692 -186.600754 196.484192
      vertex 26.716208 -137.729156 183.891922
      vertex 37.669418 -37.986786 296.953247
    endloop
  endfacet
  facet normal 0.583485 -0.472528 0.660502
    outer loop
      vertex 31.046692 -186.600754 196.484192
      vertex 37.669418 -37.986786 296.953247
      vertex -10.123329 -97.254494 296.772583
    endloop
  endfacet
  facet normal 0.459365 0.800070 -0.385840
    outer loop
      vertex -9.518228 -191.953354 28.314707
      vertex -8.773604 -107.697723 203.911804
      vertex 26.716208 -137.729156 183.891922
    endloop
  endfacet
  facet normal -0.066147 0.498168 -0.864554
    outer loop
      vertex 26.716208 -137.729156 183.891922
      vertex -8.773604 -107.697723 203.911804
      vertex 9.796803 -1.459939 263.706726
    endloop
  endfacet
  facet normal 0.869553 0.325494 -0.371391
    outer loop
      vertex 26.716208 -137.729156 183.891922
      vertex 9.796803 -1.459939 263.706726
      vertex 37.669418 -37.986786 296.953247
    endloop
  endfacet
  facet normal 0.661472 0.394997 0.637521
    outer loop
      vertex 35.811214 -31.747593 -284.030090
      vertex 4.337963 -12.179543 -263.498413
      vertex 37.038174 -157.637436 -207.304016
    endloop
  endfacet
  facet normal 0.949913 -0.155839 -0.270886
    outer loop
      vertex 25.670515 -35.901981 -317.200378
      vertex 35.811214 -31.747593 -284.030090
      vertex 37.038174 -157.637436 -207.304016
    endloop
  endfacet
  facet normal -0.955601 -0.276517 -0.101813
    outer loop
      vertex -33.232639 -146.823456 -231.150116
      vertex -18.272589 -251.801376 -86.450012
      vertex -35.815636 -222.840454 -0.449907
    endloop
  endfacet
  facet normal -0.700469 -0.707292 0.095296
    outer loop
      vertex -35.815636 -222.840454 -0.449907
      vertex -18.272589 -251.801376 -86.450012
      vertex -19.957401 -215.828812 168.155670
    endloop
  endfacet
  facet normal -0.952216 -0.288054 0.101540
    outer loop
      vertex -35.815636 -222.840454 -0.449907
      vertex -19.957401 -215.828812 168.155670
      vertex -35.815636 -153.182358 197.159775
    endloop
  endfacet
  facet normal -0.804355 -0.404919 0.434803
    outer loop
      vertex -35.815636 -153.182358 197.159775
      vertex -19.957401 -215.828812 168.155670
      vertex -10.123329 -97.254494 296.772583
    endloop
  endfacet
  facet normal -0.879351 -0.280885 0.384507
    outer loop
      vertex -35.815636 -153.182358 197.159775
      vertex -10.123329 -97.254494 296.772583
      vertex -38.021156 -32.749256 280.092896
    endloop
  endfacet
  facet normal -0.991249 -0.111383 -0.070847
    outer loop
      vertex -30.806767 -22.923103 -271.587799
      vertex -26.263828 -28.904772 -325.745331
      vertex -24.448872 -150.744659 -159.587601
    endloop
  endfacet
  facet normal -0.978454 0.161257 0.128934
    outer loop
      vertex -24.448872 -150.744659 -159.587601
      vertex -26.263828 -28.904772 -325.745331
      vertex -33.232639 -146.823456 -231.150116
    endloop
  endfacet
  facet normal -0.890852 0.434346 0.133145
    outer loop
      vertex -24.448872 -150.744659 -159.587601
      vertex -33.232639 -146.823456 -231.150116
      vertex -35.815636 -222.840454 -0.449907
    endloop
  endfacet
  facet normal -0.590360 0.450414 -0.669778
    outer loop
      vertex -35.815636 -153.182358 197.159775
      vertex -38.021156 -32.749256 280.092896
      vertex -8.773604 -107.697723 203.911804
    endloop
  endfacet
  facet normal 0.737480 -0.413317 -0.534128
    outer loop
      vertex 37.038174 -157.637436 -207.304016
      vertex 1.716973 -138.165222 -271.140503
      vertex 25.670515 -35.901981 -317.200378
    endloop
  endfacet
  facet normal -0.189393 0.641752 0.743159
    outer loop
      vertex -24.448872 -150.744659 -159.587601
      vertex -0.000002 -125.401176 -175.242126
      vertex -30.806767 -22.923103 -271.587799
    endloop
  endfacet
  facet normal 0.415128 -0.780326 -0.467718
    outer loop
      vertex 29.904379 -243.885864 -69.741646
      vertex 1.716973 -138.165222 -271.140503
      vertex 37.038174 -157.637436 -207.304016
    endloop
  endfacet
  facet normal -0.826023 0.533245 0.182581
    outer loop
      vertex -9.518228 -191.953354 28.314707
      vertex -24.448872 -150.744659 -159.587601
      vertex -35.815636 -222.840454 -0.449907
    endloop
  endfacet
  facet normal -0.507583 0.777646 -0.370980
    outer loop
      vertex -8.773604 -107.697723 203.911804
      vertex -9.518228 -191.953354 28.314707
      vertex -35.815636 -222.840454 -0.449907
    endloop
  endfacet
  facet normal -0.832615 0.522349 -0.184130
    outer loop
      vertex -8.773604 -107.697723 203.911804
      vertex -35.815636 -222.840454 -0.449907
      vertex -35.815636 -153.182358 197.159775
    endloop
  endfacet
  facet normal -0.149758 -0.984039 0.096124
    outer loop
      vertex -26.263828 -28.904772 -325.745331
      vertex -30.806767 -22.923103 -271.587799
      vertex -123.866150 -9.306610 -277.177032
    endloop
  endfacet
  facet normal -0.938215 -0.317702 0.137181
    outer loop
      vertex -385.612885 502.774414 -28.111998
      vertex -375.468781 407.734009 -178.840942
      vertex -371.637543 465.430725 -19.016775
    endloop
  endfacet
  facet normal -0.243369 -0.261713 0.933958
    outer loop
      vertex -329.836426 256.428955 -250.664230
      vertex -238.772522 59.071690 -282.238251
      vertex -170.301376 43.825130 -268.668518
    endloop
  endfacet
  facet normal -0.259111 -0.369367 0.892429
    outer loop
      vertex -170.301376 43.825130 -268.668518
      vertex -238.772522 59.071690 -282.238251
      vertex -123.866150 -9.306610 -277.177032
    endloop
  endfacet
  facet normal -0.092611 -0.235853 0.967366
    outer loop
      vertex -170.301376 43.825130 -268.668518
      vertex -123.866150 -9.306610 -277.177032
      vertex -30.806767 -22.923103 -271.587799
    endloop
  endfacet
  facet normal -0.125000 -0.302559 0.944899
    outer loop
      vertex -170.301376 43.825130 -268.668518
      vertex -30.806767 -22.923103 -271.587799
      vertex 4.337963 -12.179543 -263.498413
    endloop
  endfacet
  facet normal -0.651595 -0.403429 0.642394
    outer loop
      vertex -347.801422 239.983154 -279.214661
      vertex -238.772522 59.071690 -282.238251
      vertex -329.836426 256.428955 -250.664230
    endloop
  endfacet
  facet normal -0.586820 -0.484829 0.648524
    outer loop
      vertex -347.801422 239.983154 -279.214661
      vertex -329.836426 256.428955 -250.664230
      vertex -375.468781 407.734009 -178.840942
    endloop
  endfacet
  facet normal 0.234335 -0.358312 0.903714
    outer loop
      vertex -329.836426 256.428955 -250.664230
      vertex -327.640015 323.498840 -224.641327
      vertex -375.468781 407.734009 -178.840942
    endloop
  endfacet
  facet normal -0.456885 -0.610949 0.646527
    outer loop
      vertex -375.468781 407.734009 -178.840942
      vertex -327.640015 323.498840 -224.641327
      vertex -337.374634 418.533936 -141.715118
    endloop
  endfacet
  facet normal -0.065620 -0.938056 0.340212
    outer loop
      vertex -375.468781 407.734009 -178.840942
      vertex -337.374634 418.533936 -141.715118
      vertex -371.637543 465.430725 -19.016775
    endloop
  endfacet
  facet normal -0.334242 -0.907725 0.253608
    outer loop
      vertex -335.801147 459.860321 8.275865
      vertex -371.637543 465.430725 -19.016775
      vertex -337.374634 418.533936 -141.715118
    endloop
  endfacet
  facet normal 0.145844 0.531798 0.834219
    outer loop
      vertex -170.301376 43.825130 -268.668518
      vertex 4.337963 -12.179543 -263.498413
      vertex -35.080170 36.249916 -287.479858
    endloop
  endfacet
  facet normal 0.961203 0.055128 0.270276
    outer loop
      vertex -311.370758 399.107758 -196.728683
      vertex -284.902618 280.407440 -266.648346
      vertex -323.044861 476.747589 -171.047180
    endloop
  endfacet
  facet normal 0.981629 0.173708 -0.078930
    outer loop
      vertex -311.370758 399.107758 -196.728683
      vertex -323.044861 476.747589 -171.047180
      vertex -315.298004 497.106812 -29.895929
    endloop
  endfacet
  facet normal 0.288538 0.953217 -0.090129
    outer loop
      vertex -35.080170 36.249916 -287.479858
      vertex 17.756264 16.068256 -331.773956
      vertex -141.709366 68.270927 -290.183075
    endloop
  endfacet
  facet normal 0.129848 0.829469 -0.543250
    outer loop
      vertex -141.709366 68.270927 -290.183075
      vertex 17.756264 16.068256 -331.773956
      vertex -104.428596 35.518265 -331.281097
    endloop
  endfacet
  facet normal 0.699566 0.711355 0.067682
    outer loop
      vertex -141.709366 68.270927 -290.183075
      vertex -104.428596 35.518265 -331.281097
      vertex -215.751175 141.888535 -298.621277
    endloop
  endfacet
  facet normal 0.701375 0.473185 -0.533075
    outer loop
      vertex -284.902618 280.407440 -266.648346
      vertex -215.751175 141.888535 -298.621277
      vertex -229.285797 120.134254 -335.739227
    endloop
  endfacet
  facet normal 0.937901 0.344175 -0.043407
    outer loop
      vertex -284.902618 280.407440 -266.648346
      vertex -229.285797 120.134254 -335.739227
      vertex -333.564240 414.776825 -252.667892
    endloop
  endfacet
  facet normal 0.857953 0.349847 -0.376197
    outer loop
      vertex -284.902618 280.407440 -266.648346
      vertex -333.564240 414.776825 -252.667892
      vertex -323.044861 476.747589 -171.047180
    endloop
  endfacet
  facet normal 0.737639 0.661381 -0.135880
    outer loop
      vertex -315.298004 497.106812 -29.895929
      vertex -323.044861 476.747589 -171.047180
      vertex -341.912354 526.111755 -33.196312
    endloop
  endfacet
  facet normal 0.475749 0.672110 -0.567390
    outer loop
      vertex -215.751175 141.888535 -298.621277
      vertex -104.428596 35.518265 -331.281097
      vertex -229.285797 120.134254 -335.739227
    endloop
  endfacet
  facet normal 0.354027 0.367736 -0.859904
    outer loop
      vertex -229.285797 120.134254 -335.739227
      vertex -341.608551 301.135986 -304.578064
      vertex -333.564240 414.776825 -252.667892
    endloop
  endfacet
  facet normal -0.103876 0.798542 -0.592908
    outer loop
      vertex -323.044861 476.747589 -171.047180
      vertex -333.564240 414.776825 -252.667892
      vertex -360.985138 503.253235 -128.701721
    endloop
  endfacet
  facet normal 0.319383 0.905181 -0.280430
    outer loop
      vertex -323.044861 476.747589 -171.047180
      vertex -360.985138 503.253235 -128.701721
      vertex -341.912354 526.111755 -33.196312
    endloop
  endfacet
  facet normal -0.021809 -0.111830 -0.993488
    outer loop
      vertex -104.428596 35.518265 -331.281097
      vertex 17.756264 16.068256 -331.773956
      vertex -26.263828 -28.904772 -325.745331
    endloop
  endfacet
  facet normal -0.277681 -0.944224 -0.177014
    outer loop
      vertex -172.323868 15.194738 -331.855988
      vertex -26.263828 -28.904772 -325.745331
      vertex -123.866150 -9.306610 -277.177032
    endloop
  endfacet
  facet normal -0.512401 -0.855839 0.070605
    outer loop
      vertex -172.323868 15.194738 -331.855988
      vertex -123.866150 -9.306610 -277.177032
      vertex -238.772522 59.071690 -282.238251
    endloop
  endfacet
  facet normal -0.689265 -0.620061 -0.374751
    outer loop
      vertex -172.323868 15.194738 -331.855988
      vertex -238.772522 59.071690 -282.238251
      vertex -298.718414 153.911316 -328.903259
    endloop
  endfacet
  facet normal -0.855072 -0.516148 0.049433
    outer loop
      vertex -298.718414 153.911316 -328.903259
      vertex -238.772522 59.071690 -282.238251
      vertex -347.801422 239.983154 -279.214661
    endloop
  endfacet
  facet normal -0.980341 -0.191093 0.049142
    outer loop
      vertex -381.569519 431.978516 -206.268829
      vertex -347.801422 239.983154 -279.214661
      vertex -375.468781 407.734009 -178.840942
    endloop
  endfacet
  facet normal -0.980844 -0.187642 0.052304
    outer loop
      vertex -381.569519 431.978516 -206.268829
      vertex -375.468781 407.734009 -178.840942
      vertex -385.612885 502.774414 -28.111998
    endloop
  endfacet
  facet normal -0.819117 -0.147017 -0.554467
    outer loop
      vertex -341.608551 301.135986 -304.578064
      vertex -298.718414 153.911316 -328.903259
      vertex -347.801422 239.983154 -279.214661
    endloop
  endfacet
  facet normal -0.943435 -0.040923 -0.329023
    outer loop
      vertex -341.608551 301.135986 -304.578064
      vertex -347.801422 239.983154 -279.214661
      vertex -381.569519 431.978516 -206.268829
    endloop
  endfacet
  facet normal -0.856298 0.473011 -0.207399
    outer loop
      vertex -360.985138 503.253235 -128.701721
      vertex -381.569519 431.978516 -206.268829
      vertex -385.612885 502.774414 -28.111998
    endloop
  endfacet
  facet normal -0.571752 0.374026 -0.730208
    outer loop
      vertex -333.564240 414.776825 -252.667892
      vertex -341.608551 301.135986 -304.578064
      vertex -381.569519 431.978516 -206.268829
    endloop
  endfacet
  facet normal -0.311778 0.739421 -0.596700
    outer loop
      vertex -333.564240 414.776825 -252.667892
      vertex -381.569519 431.978516 -206.268829
      vertex -360.985138 503.253235 -128.701721
    endloop
  endfacet
  facet normal -0.478244 0.870934 -0.112945
    outer loop
      vertex -360.985138 503.253235 -128.701721
      vertex -385.612885 502.774414 -28.111998
      vertex -341.912354 526.111755 -33.196312
    endloop
  endfacet
  facet normal 0.408367 -0.782842 0.469462
    outer loop
      vertex -337.374634 418.533936 -141.715118
      vertex -311.370758 399.107758 -196.728683
      vertex -315.298004 497.106812 -29.895929
    endloop
  endfacet
  facet normal 0.911485 -0.398907 0.100347
    outer loop
      vertex -337.374634 418.533936 -141.715118
      vertex -315.298004 497.106812 -29.895929
      vertex -335.801147 459.860321 8.275865
    endloop
  endfacet
  facet normal 0.025034 -0.055396 -0.998151
    outer loop
      vertex -104.428596 35.518265 -331.281097
      vertex -26.263828 -28.904772 -325.745331
      vertex -172.323868 15.194738 -331.855988
    endloop
  endfacet
  facet normal 0.145132 0.552572 0.820732
    outer loop
      vertex -170.301376 43.825130 -268.668518
      vertex -35.080170 36.249916 -287.479858
      vertex -141.709366 68.270927 -290.183075
    endloop
  endfacet
  facet normal 0.016804 -0.027864 -0.999471
    outer loop
      vertex -229.285797 120.134254 -335.739227
      vertex -104.428596 35.518265 -331.281097
      vertex -172.323868 15.194738 -331.855988
    endloop
  endfacet
  facet normal -0.155158 -0.120504 -0.980512
    outer loop
      vertex -229.285797 120.134254 -335.739227
      vertex -172.323868 15.194738 -331.855988
      vertex -298.718414 153.911316 -328.903259
    endloop
  endfacet
  facet normal -0.020796 0.157079 -0.987367
    outer loop
      vertex -229.285797 120.134254 -335.739227
      vertex -298.718414 153.911316 -328.903259
      vertex -341.608551 301.135986 -304.578064
    endloop
  endfacet
  facet normal 0.434412 0.252765 0.864520
    outer loop
      vertex -170.301376 43.825130 -268.668518
      vertex -141.709366 68.270927 -290.183075
      vertex -329.836426 256.428955 -250.664230
    endloop
  endfacet
  facet normal 0.705752 0.708342 -0.012884
    outer loop
      vertex -329.836426 256.428955 -250.664230
      vertex -141.709366 68.270927 -290.183075
      vertex -215.751175 141.888535 -298.621277
    endloop
  endfacet
  facet normal 0.027795 -0.362375 0.931618
    outer loop
      vertex -329.836426 256.428955 -250.664230
      vertex -215.751175 141.888535 -298.621277
      vertex -327.640015 323.498840 -224.641327
    endloop
  endfacet
  facet normal 0.801080 0.277501 0.530343
    outer loop
      vertex -327.640015 323.498840 -224.641327
      vertex -215.751175 141.888535 -298.621277
      vertex -284.902618 280.407440 -266.648346
    endloop
  endfacet
  facet normal 0.412556 -0.392282 0.822138
    outer loop
      vertex -327.640015 323.498840 -224.641327
      vertex -284.902618 280.407440 -266.648346
      vertex -311.370758 399.107758 -196.728683
    endloop
  endfacet
  facet normal 0.790858 -0.354376 0.498960
    outer loop
      vertex -327.640015 323.498840 -224.641327
      vertex -311.370758 399.107758 -196.728683
      vertex -337.374634 418.533936 -141.715118
    endloop
  endfacet
  facet normal 0.059382 0.501594 -0.863063
    outer loop
      vertex 9.796803 -1.459939 263.706726
      vertex -139.162064 20.360270 266.139160
      vertex -109.341385 49.648094 285.212402
    endloop
  endfacet
  facet normal 0.022435 0.431733 -0.901722
    outer loop
      vertex 9.796803 -1.459939 263.706726
      vertex -109.341385 49.648094 285.212402
      vertex 108.110886 51.403389 291.463135
    endloop
  endfacet
  facet normal -0.022754 0.828992 0.558797
    outer loop
      vertex 108.110886 51.403389 291.463135
      vertex -109.341385 49.648094 285.212402
      vertex -39.198410 32.112537 314.083191
    endloop
  endfacet
  facet normal 0.449147 -0.197780 -0.871292
    outer loop
      vertex -289.434326 118.136566 290.456055
      vertex -354.382874 359.414764 202.206070
      vertex -313.651093 267.154541 244.145859
    endloop
  endfacet
  facet normal -0.197184 -0.476523 -0.856764
    outer loop
      vertex -313.651093 267.154541 244.145859
      vertex -354.382874 359.414764 202.206070
      vertex -323.780304 409.374359 167.375854
    endloop
  endfacet
  facet normal 0.428686 -0.678490 -0.596556
    outer loop
      vertex -323.780304 409.374359 167.375854
      vertex -354.382874 359.414764 202.206070
      vertex -358.450104 427.604187 121.728477
    endloop
  endfacet
  facet normal -0.113880 -0.949410 -0.292665
    outer loop
      vertex -358.450104 427.604187 121.728477
      vertex -335.801147 459.860321 8.275865
      vertex -323.780304 409.374359 167.375854
    endloop
  endfacet
  facet normal 0.692402 -0.303919 -0.654380
    outer loop
      vertex -313.651093 267.154541 244.145859
      vertex -323.780304 409.374359 167.375854
      vertex -278.456543 264.603271 282.570282
    endloop
  endfacet
  facet normal -0.707371 0.705317 0.046403
    outer loop
      vertex -372.591492 507.220398 102.808418
      vertex -358.337067 526.603577 25.483772
      vertex -385.612885 502.774414 -28.111998
    endloop
  endfacet
  facet normal -0.952921 0.291091 0.084893
    outer loop
      vertex -372.591492 507.220398 102.808418
      vertex -385.612885 502.774414 -28.111998
      vertex -385.440674 446.199097 167.814117
    endloop
  endfacet
  facet normal -0.922472 -0.371125 -0.106355
    outer loop
      vertex -385.440674 446.199097 167.814117
      vertex -385.612885 502.774414 -28.111998
      vertex -371.637543 465.430725 -19.016775
    endloop
  endfacet
  facet normal -0.070229 -0.376450 -0.923771
    outer loop
      vertex -38.021156 -32.749256 280.092896
      vertex -139.162064 20.360270 266.139160
      vertex 9.796803 -1.459939 263.706726
    endloop
  endfacet
  facet normal -0.507656 -0.329846 -0.795919
    outer loop
      vertex -313.651093 267.154541 244.145859
      vertex -225.986511 72.452736 268.919891
      vertex -289.434326 118.136566 290.456055
    endloop
  endfacet
  facet normal -0.344906 -0.790008 -0.506880
    outer loop
      vertex -139.162064 20.360270 266.139160
      vertex -38.021156 -32.749256 280.092896
      vertex -145.868210 -9.672906 317.511169
    endloop
  endfacet
  facet normal -0.459376 -0.739383 -0.492226
    outer loop
      vertex -139.162064 20.360270 266.139160
      vertex -145.868210 -9.672906 317.511169
      vertex -225.986511 72.452736 268.919891
    endloop
  endfacet
  facet normal -0.619632 -0.747013 -0.240889
    outer loop
      vertex -225.986511 72.452736 268.919891
      vertex -145.868210 -9.672906 317.511169
      vertex -289.434326 118.136566 290.456055
    endloop
  endfacet
  facet normal -0.048398 -0.906451 0.419528
    outer loop
      vertex -145.868210 -9.672906 317.511169
      vertex -38.021156 -32.749256 280.092896
      vertex -15.031105 -8.119514 335.961304
    endloop
  endfacet
  facet normal -0.605945 -0.741588 -0.287885
    outer loop
      vertex -145.868210 -9.672906 317.511169
      vertex -251.894455 75.519409 321.222748
      vertex -289.434326 118.136566 290.456055
    endloop
  endfacet
  facet normal 0.197635 0.385675 -0.901219
    outer loop
      vertex -109.341385 49.648094 285.212402
      vertex -139.162064 20.360270 266.139160
      vertex -197.622986 121.201988 296.473816
    endloop
  endfacet
  facet normal 0.204490 0.388785 -0.898349
    outer loop
      vertex -197.622986 121.201988 296.473816
      vertex -139.162064 20.360270 266.139160
      vertex -225.986511 72.452736 268.919891
    endloop
  endfacet
  facet normal 0.491868 0.193615 -0.848870
    outer loop
      vertex -197.622986 121.201988 296.473816
      vertex -225.986511 72.452736 268.919891
      vertex -245.533371 174.411743 280.849091
    endloop
  endfacet
  facet normal 0.671145 0.211787 -0.710430
    outer loop
      vertex -245.533371 174.411743 280.849091
      vertex -225.986511 72.452736 268.919891
      vertex -313.651093 267.154541 244.145859
    endloop
  endfacet
  facet normal 0.718130 0.274348 -0.639549
    outer loop
      vertex -245.533371 174.411743 280.849091
      vertex -313.651093 267.154541 244.145859
      vertex -278.456543 264.603271 282.570282
    endloop
  endfacet
  facet normal -0.441536 -0.216088 0.870834
    outer loop
      vertex -218.010422 88.876122 341.717163
      vertex -333.167847 209.930771 313.367737
      vertex -251.894455 75.519409 321.222748
    endloop
  endfacet
  facet normal -0.894717 -0.360437 -0.263755
    outer loop
      vertex -289.434326 118.136566 290.456055
      vertex -333.167847 209.930771 313.367737
      vertex -385.440674 446.199097 167.814117
    endloop
  endfacet
  facet normal 0.315175 -0.250017 -0.915509
    outer loop
      vertex -289.434326 118.136566 290.456055
      vertex -385.440674 446.199097 167.814117
      vertex -354.382874 359.414764 202.206070
    endloop
  endfacet
  facet normal 0.272898 0.580935 0.766839
    outer loop
      vertex -39.198410 32.112537 314.083191
      vertex -158.382751 63.845467 332.457916
      vertex -15.031105 -8.119514 335.961304
    endloop
  endfacet
  facet normal 0.494535 0.196680 -0.846612
    outer loop
      vertex -197.622986 121.201988 296.473816
      vertex -245.533371 174.411743 280.849091
      vertex -278.456543 264.603271 282.570282
    endloop
  endfacet
  facet normal 0.253187 0.967018 -0.027781
    outer loop
      vertex -39.198410 32.112537 314.083191
      vertex -109.341385 49.648094 285.212402
      vertex -158.382751 63.845467 332.457916
    endloop
  endfacet
  facet normal 0.407577 0.830374 0.379947
    outer loop
      vertex -158.382751 63.845467 332.457916
      vertex -218.010422 88.876122 341.717163
      vertex -15.031105 -8.119514 335.961304
    endloop
  endfacet
  facet normal -0.128321 -0.324150 0.937262
    outer loop
      vertex -15.031105 -8.119514 335.961304
      vertex -218.010422 88.876122 341.717163
      vertex -145.868210 -9.672906 317.511169
    endloop
  endfacet
  facet normal -0.328447 -0.445065 0.833091
    outer loop
      vertex -145.868210 -9.672906 317.511169
      vertex -218.010422 88.876122 341.717163
      vertex -251.894455 75.519409 321.222748
    endloop
  endfacet
  facet normal 0.602705 0.677169 0.422124
    outer loop
      vertex -158.382751 63.845467 332.457916
      vertex -109.341385 49.648094 285.212402
      vertex -197.622986 121.201988 296.473816
    endloop
  endfacet
  facet normal 0.378784 0.663761 0.644937
    outer loop
      vertex -218.010422 88.876122 341.717163
      vertex -158.382751 63.845467 332.457916
      vertex -197.622986 121.201988 296.473816
    endloop
  endfacet
  facet normal 0.664230 0.433466 0.609020
    outer loop
      vertex -218.010422 88.876122 341.717163
      vertex -197.622986 121.201988 296.473816
      vertex -278.456543 264.603271 282.570282
    endloop
  endfacet
  facet normal 0.710656 0.431485 0.555687
    outer loop
      vertex -218.010422 88.876122 341.717163
      vertex -278.456543 264.603271 282.570282
      vertex -324.779968 316.125427 301.805908
    endloop
  endfacet
  facet normal 0.688815 0.391527 0.610115
    outer loop
      vertex -324.779968 316.125427 301.805908
      vertex -278.456543 264.603271 282.570282
      vertex -313.928650 430.763031 215.988937
    endloop
  endfacet
  facet normal -0.971030 -0.236382 -0.034977
    outer loop
      vertex -333.167847 209.930771 313.367737
      vertex -367.858368 359.667877 264.490540
      vertex -385.440674 446.199097 167.814117
    endloop
  endfacet
  facet normal -0.844118 -0.429349 -0.321131
    outer loop
      vertex -354.382874 359.414764 202.206070
      vertex -385.440674 446.199097 167.814117
      vertex -358.450104 427.604187 121.728477
    endloop
  endfacet
  facet normal -0.813767 -0.472257 0.338758
    outer loop
      vertex -289.434326 118.136566 290.456055
      vertex -251.894455 75.519409 321.222748
      vertex -333.167847 209.930771 313.367737
    endloop
  endfacet
  facet normal 0.277465 0.558779 0.781524
    outer loop
      vertex -324.779968 316.125427 301.805908
      vertex -313.928650 430.763031 215.988937
      vertex -356.431946 444.302948 221.398026
    endloop
  endfacet
  facet normal -0.119915 0.116809 0.985888
    outer loop
      vertex -218.010422 88.876122 341.717163
      vertex -324.779968 316.125427 301.805908
      vertex -333.167847 209.930771 313.367737
    endloop
  endfacet
  facet normal -0.568490 0.133289 0.811821
    outer loop
      vertex -333.167847 209.930771 313.367737
      vertex -324.779968 316.125427 301.805908
      vertex -367.858368 359.667877 264.490540
    endloop
  endfacet
  facet normal 0.919378 -0.349575 -0.180392
    outer loop
      vertex -323.780304 409.374359 167.375854
      vertex -335.801147 459.860321 8.275865
      vertex -313.804504 504.961243 32.983528
    endloop
  endfacet
  facet normal 0.314478 0.759915 0.568887
    outer loop
      vertex -313.928650 430.763031 215.988937
      vertex -333.617462 498.043182 137.000397
      vertex -356.431946 444.302948 221.398026
    endloop
  endfacet
  facet normal -0.221652 0.848572 0.480411
    outer loop
      vertex -356.431946 444.302948 221.398026
      vertex -333.617462 498.043182 137.000397
      vertex -372.591492 507.220398 102.808418
    endloop
  endfacet
  facet normal 0.963941 0.108397 -0.243039
    outer loop
      vertex -313.928650 430.763031 215.988937
      vertex -278.456543 264.603271 282.570282
      vertex -323.780304 409.374359 167.375854
    endloop
  endfacet
  facet normal -0.261532 0.465745 0.845389
    outer loop
      vertex -367.858368 359.667877 264.490540
      vertex -324.779968 316.125427 301.805908
      vertex -356.431946 444.302948 221.398026
    endloop
  endfacet
  facet normal 0.967994 -0.232813 -0.093736
    outer loop
      vertex -313.928650 430.763031 215.988937
      vertex -323.780304 409.374359 167.375854
      vertex -313.804504 504.961243 32.983528
    endloop
  endfacet
  facet normal -0.820831 0.343259 0.456520
    outer loop
      vertex -385.440674 446.199097 167.814117
      vertex -367.858368 359.667877 264.490540
      vertex -356.431946 444.302948 221.398026
    endloop
  endfacet
  facet normal -0.708063 0.579287 0.403823
    outer loop
      vertex -385.440674 446.199097 167.814117
      vertex -356.431946 444.302948 221.398026
      vertex -372.591492 507.220398 102.808418
    endloop
  endfacet
  facet normal 0.051080 -0.963259 -0.263671
    outer loop
      vertex -358.450104 427.604187 121.728477
      vertex -371.637543 465.430725 -19.016775
      vertex -335.801147 459.860321 8.275865
    endloop
  endfacet
  facet normal 0.855781 0.479230 0.194881
    outer loop
      vertex -333.617462 498.043182 137.000397
      vertex -313.928650 430.763031 215.988937
      vertex -313.804504 504.961243 32.983528
    endloop
  endfacet
  facet normal -0.697932 -0.705318 -0.124166
    outer loop
      vertex -358.450104 427.604187 121.728477
      vertex -385.440674 446.199097 167.814117
      vertex -371.637543 465.430725 -19.016775
    endloop
  endfacet
  facet normal 0.012979 0.969340 0.245380
    outer loop
      vertex -372.591492 507.220398 102.808418
      vertex -333.617462 498.043182 137.000397
      vertex -358.337067 526.603577 25.483772
    endloop
  endfacet
  facet normal 0.413891 0.899702 0.138676
    outer loop
      vertex -313.804504 504.961243 32.983528
      vertex -358.337067 526.603577 25.483772
      vertex -333.617462 498.043182 137.000397
    endloop
  endfacet
  facet normal 0.698073 0.579884 0.420034
    outer loop
      vertex 364.567139 526.409790 -17.351488
      vertex 300.030151 590.975891 0.767669
      vertex 333.538300 524.056519 37.465569
    endloop
  endfacet
  facet normal 0.220340 0.209782 -0.952597
    outer loop
      vertex 314.271484 505.716461 -33.542187
      vertex 203.902710 638.565125 -29.814844
      vertex 364.567139 526.409790 -17.351488
    endloop
  endfacet
  facet normal 0.503999 0.660087 -0.557019
    outer loop
      vertex 364.567139 526.409790 -17.351488
      vertex 203.902710 638.565125 -29.814844
      vertex 300.030151 590.975891 0.767669
    endloop
  endfacet
  facet normal 0.656662 -0.582623 0.478900
    outer loop
      vertex -335.801147 459.860321 8.275865
      vertex -214.647614 572.521851 -20.785774
      vertex -313.804504 504.961243 32.983528
    endloop
  endfacet
  facet normal -0.705201 0.707624 0.044273
    outer loop
      vertex -385.612885 502.774414 -28.111998
      vertex -358.337067 526.603577 25.483772
      vertex -275.064056 611.211548 -0.409420
    endloop
  endfacet
  facet normal -0.394105 0.583239 -0.710292
    outer loop
      vertex -385.612885 502.774414 -28.111998
      vertex -275.064056 611.211548 -0.409420
      vertex -341.912354 526.111755 -33.196312
    endloop
  endfacet
  facet normal 0.573933 -0.718528 -0.392835
    outer loop
      vertex -315.298004 497.106812 -29.895929
      vertex -214.647614 572.521851 -20.785774
      vertex -335.801147 459.860321 8.275865
    endloop
  endfacet
  facet normal 0.151389 -0.178940 0.972143
    outer loop
      vertex -107.713852 617.676880 21.636944
      vertex -112.100471 667.692139 31.526239
      vertex -313.804504 504.961243 32.983528
    endloop
  endfacet
  facet normal -0.055853 0.467881 -0.882025
    outer loop
      vertex 0.961449 690.206177 -18.307688
      vertex -1.125642 657.177246 -35.696114
      vertex -180.871841 647.964722 -29.200844
    endloop
  endfacet
  facet normal -0.222146 0.972880 -0.064470
    outer loop
      vertex 0.961449 690.206177 -18.307688
      vertex -180.871841 647.964722 -29.200844
      vertex -112.100471 667.692139 31.526239
    endloop
  endfacet
  facet normal -0.340595 0.936677 0.081429
    outer loop
      vertex -112.100471 667.692139 31.526239
      vertex -180.871841 647.964722 -29.200844
      vertex -275.064056 611.211548 -0.409420
    endloop
  endfacet
  facet normal -0.343251 0.566995 0.748796
    outer loop
      vertex -112.100471 667.692139 31.526239
      vertex -275.064056 611.211548 -0.409420
      vertex -358.337067 526.603577 25.483772
    endloop
  endfacet
  facet normal -0.100934 0.133936 0.985837
    outer loop
      vertex -112.100471 667.692139 31.526239
      vertex -358.337067 526.603577 25.483772
      vertex -313.804504 504.961243 32.983528
    endloop
  endfacet
  facet normal -0.624328 -0.767449 0.145724
    outer loop
      vertex 158.498199 600.338928 -21.890442
      vertex 314.971405 477.102692 -0.527220
      vertex 162.045303 606.875610 27.731695
    endloop
  endfacet
  facet normal -0.149808 -0.978804 0.139646
    outer loop
      vertex 158.498199 600.338928 -21.890442
      vertex 162.045303 606.875610 27.731695
      vertex 30.963028 622.981628 0.000003
    endloop
  endfacet
  facet normal 0.456146 -0.857850 -0.236693
    outer loop
      vertex -214.647614 572.521851 -20.785774
      vertex -107.713852 617.676880 21.636944
      vertex -313.804504 504.961243 32.983528
    endloop
  endfacet
  facet normal -0.236730 -0.799069 -0.552674
    outer loop
      vertex 158.498199 600.338928 -21.890442
      vertex 30.963028 622.981628 0.000003
      vertex -1.125642 657.177246 -35.696114
    endloop
  endfacet
  facet normal 0.191379 -0.617133 -0.763230
    outer loop
      vertex 30.963028 622.981628 0.000003
      vertex -214.647614 572.521851 -20.785774
      vertex -1.125642 657.177246 -35.696114
    endloop
  endfacet
  facet normal -0.030971 -0.097096 -0.994793
    outer loop
      vertex -1.125642 657.177246 -35.696114
      vertex -214.647614 572.521851 -20.785774
      vertex -180.871841 647.964722 -29.200844
    endloop
  endfacet
  facet normal 0.160289 -0.180015 -0.970516
    outer loop
      vertex -180.871841 647.964722 -29.200844
      vertex -214.647614 572.521851 -20.785774
      vertex -341.912354 526.111755 -33.196312
    endloop
  endfacet
  facet normal -0.438790 0.601785 -0.667321
    outer loop
      vertex -180.871841 647.964722 -29.200844
      vertex -341.912354 526.111755 -33.196312
      vertex -275.064056 611.211548 -0.409420
    endloop
  endfacet
  facet normal 0.119573 -0.815360 0.566471
    outer loop
      vertex 30.963028 622.981628 0.000003
      vertex -107.713852 617.676880 21.636944
      vertex -214.647614 572.521851 -20.785774
    endloop
  endfacet
  facet normal 0.103582 -0.018112 -0.994456
    outer loop
      vertex -214.647614 572.521851 -20.785774
      vertex -315.298004 497.106812 -29.895929
      vertex -341.912354 526.111755 -33.196312
    endloop
  endfacet
  facet normal -0.454887 -0.677721 -0.577731
    outer loop
      vertex 314.271484 505.716461 -33.542187
      vertex 314.971405 477.102692 -0.527220
      vertex 158.498199 600.338928 -21.890442
    endloop
  endfacet
  facet normal -0.115543 -0.068188 -0.990959
    outer loop
      vertex 203.902710 638.565125 -29.814844
      vertex 314.271484 505.716461 -33.542187
      vertex 158.498199 600.338928 -21.890442
    endloop
  endfacet
  facet normal 0.008702 -0.212879 -0.977040
    outer loop
      vertex 203.902710 638.565125 -29.814844
      vertex 158.498199 600.338928 -21.890442
      vertex -1.125642 657.177246 -35.696114
    endloop
  endfacet
  facet normal 0.067266 0.461460 -0.884607
    outer loop
      vertex 203.902710 638.565125 -29.814844
      vertex -1.125642 657.177246 -35.696114
      vertex 0.961449 690.206177 -18.307688
    endloop
  endfacet
  facet normal 0.419018 0.903603 0.089026
    outer loop
      vertex 111.746857 675.754883 26.462624
      vertex 300.030151 590.975891 0.767669
      vertex 203.902710 638.565125 -29.814844
    endloop
  endfacet
  facet normal 0.225058 0.940868 -0.253213
    outer loop
      vertex 111.746857 675.754883 26.462624
      vertex 203.902710 638.565125 -29.814844
      vertex 0.961449 690.206177 -18.307688
    endloop
  endfacet
  facet normal -0.025327 0.931330 0.363295
    outer loop
      vertex 111.746857 675.754883 26.462624
      vertex 0.961449 690.206177 -18.307688
      vertex -112.100471 667.692139 31.526239
    endloop
  endfacet
  facet normal 0.361108 0.580872 0.729512
    outer loop
      vertex 333.538300 524.056519 37.465569
      vertex 300.030151 590.975891 0.767669
      vertex 111.746857 675.754883 26.462624
    endloop
  endfacet
  facet normal -0.299176 -0.525925 0.796176
    outer loop
      vertex 162.045303 606.875610 27.731695
      vertex 314.971405 477.102692 -0.527220
      vertex 333.538300 524.056519 37.465569
    endloop
  endfacet
  facet normal -0.073688 -0.035447 0.996651
    outer loop
      vertex 162.045303 606.875610 27.731695
      vertex 333.538300 524.056519 37.465569
      vertex 111.746857 675.754883 26.462624
    endloop
  endfacet
  facet normal -0.022508 0.001984 0.999745
    outer loop
      vertex 162.045303 606.875610 27.731695
      vertex 111.746857 675.754883 26.462624
      vertex -107.713852 617.676880 21.636944
    endloop
  endfacet
  facet normal 0.029088 -0.191432 0.981075
    outer loop
      vertex -107.713852 617.676880 21.636944
      vertex 111.746857 675.754883 26.462624
      vertex -112.100471 667.692139 31.526239
    endloop
  endfacet
  facet normal -0.027591 -0.915530 -0.401302
    outer loop
      vertex -107.713852 617.676880 21.636944
      vertex 30.963028 622.981628 0.000003
      vertex 162.045303 606.875610 27.731695
    endloop
  endfacet
  facet normal 0.094038 -0.858441 0.504217
    outer loop
      vertex 321.607971 391.273682 -182.177277
      vertex 364.596252 398.554657 -177.798676
      vertex 339.599945 442.979126 -97.503105
    endloop
  endfacet
  facet normal -0.151582 0.593125 0.790712
    outer loop
      vertex 4.337963 -12.179543 -263.498413
      vertex 176.878479 37.615334 -267.773773
      vertex 85.944786 48.240776 -293.176300
    endloop
  endfacet
  facet normal -0.001654 0.442675 0.896681
    outer loop
      vertex 4.337963 -12.179543 -263.498413
      vertex 85.944786 48.240776 -293.176300
      vertex -35.080170 36.249916 -287.479858
    endloop
  endfacet
  facet normal 0.181157 -0.558193 0.809693
    outer loop
      vertex 4.337963 -12.179543 -263.498413
      vertex 35.811214 -31.747593 -284.030090
      vertex 176.878479 37.615334 -267.773773
    endloop
  endfacet
  facet normal 0.173770 -0.545554 0.819863
    outer loop
      vertex 176.878479 37.615334 -267.773773
      vertex 35.811214 -31.747593 -284.030090
      vertex 153.266373 -5.074542 -291.175934
    endloop
  endfacet
  facet normal 0.379645 -0.325041 0.866151
    outer loop
      vertex 176.878479 37.615334 -267.773773
      vertex 297.865814 138.953125 -282.774933
      vertex 263.554840 140.827942 -267.032440
    endloop
  endfacet
  facet normal 0.380630 -0.319788 0.867673
    outer loop
      vertex 263.554840 140.827942 -267.032440
      vertex 297.865814 138.953125 -282.774933
      vertex 315.636322 286.766937 -236.092484
    endloop
  endfacet
  facet normal 0.373947 -0.319889 0.870537
    outer loop
      vertex 315.636322 286.766937 -236.092484
      vertex 297.865814 138.953125 -282.774933
      vertex 365.429749 312.525024 -248.016602
    endloop
  endfacet
  facet normal 0.455497 -0.560263 0.691830
    outer loop
      vertex 315.636322 286.766937 -236.092484
      vertex 365.429749 312.525024 -248.016602
      vertex 364.596252 398.554657 -177.798676
    endloop
  endfacet
  facet normal 0.564633 -0.614404 0.551088
    outer loop
      vertex 176.878479 37.615334 -267.773773
      vertex 153.266373 -5.074542 -291.175934
      vertex 250.235443 65.710205 -311.610931
    endloop
  endfacet
  facet normal 0.567993 -0.593758 0.569943
    outer loop
      vertex 176.878479 37.615334 -267.773773
      vertex 250.235443 65.710205 -311.610931
      vertex 297.865814 138.953125 -282.774933
    endloop
  endfacet
  facet normal 0.224222 -0.973078 0.053324
    outer loop
      vertex 153.266373 -5.074542 -291.175934
      vertex 35.811214 -31.747593 -284.030090
      vertex 25.670515 -35.901981 -317.200378
    endloop
  endfacet
  facet normal 0.084477 -0.455343 -0.886299
    outer loop
      vertex 25.670515 -35.901981 -317.200378
      vertex -26.263828 -28.904772 -325.745331
      vertex 170.546951 36.762268 -340.723358
    endloop
  endfacet
  facet normal -0.046363 -0.088004 -0.995041
    outer loop
      vertex 170.546951 36.762268 -340.723358
      vertex -26.263828 -28.904772 -325.745331
      vertex 17.756264 16.068256 -331.773956
    endloop
  endfacet
  facet normal 0.449088 -0.753729 -0.479805
    outer loop
      vertex 153.266373 -5.074542 -291.175934
      vertex 170.546951 36.762268 -340.723358
      vertex 250.235443 65.710205 -311.610931
    endloop
  endfacet
  facet normal -0.143732 0.824595 -0.547161
    outer loop
      vertex 170.546951 36.762268 -340.723358
      vertex 17.756264 16.068256 -331.773956
      vertex -35.080170 36.249916 -287.479858
    endloop
  endfacet
  facet normal -0.109022 0.904483 -0.412341
    outer loop
      vertex 170.546951 36.762268 -340.723358
      vertex -35.080170 36.249916 -287.479858
      vertex 85.944786 48.240776 -293.176300
    endloop
  endfacet
  facet normal -0.012995 -0.457858 0.888930
    outer loop
      vertex 315.636322 286.766937 -236.092484
      vertex 364.596252 398.554657 -177.798676
      vertex 321.607971 391.273682 -182.177277
    endloop
  endfacet
  facet normal -0.439372 -0.722121 0.534316
    outer loop
      vertex 339.599945 442.979126 -97.503105
      vertex 314.271484 505.716461 -33.542187
      vertex 321.607971 391.273682 -182.177277
    endloop
  endfacet
  facet normal -0.664574 0.079654 0.742965
    outer loop
      vertex 315.636322 286.766937 -236.092484
      vertex 254.357193 189.919174 -280.522766
      vertex 263.554840 140.827942 -267.032440
    endloop
  endfacet
  facet normal -0.568081 -0.810799 0.141028
    outer loop
      vertex 352.839203 454.653503 22.944874
      vertex 314.971405 477.102692 -0.527220
      vertex 339.599945 442.979126 -97.503105
    endloop
  endfacet
  facet normal 0.862867 0.504619 -0.028642
    outer loop
      vertex 372.293091 508.502777 -100.089485
      vertex 364.567139 526.409790 -17.351488
      vertex 384.108795 499.010010 88.627319
    endloop
  endfacet
  facet normal 0.964043 0.261521 -0.047205
    outer loop
      vertex 372.293091 508.502777 -100.089485
      vertex 384.108795 499.010010 88.627319
      vertex 384.829498 450.201172 -167.063690
    endloop
  endfacet
  facet normal -0.242401 0.196741 0.950018
    outer loop
      vertex 85.944786 48.240776 -293.176300
      vertex 176.878479 37.615334 -267.773773
      vertex 263.554840 140.827942 -267.032440
    endloop
  endfacet
  facet normal -0.473005 0.872229 0.124434
    outer loop
      vertex 184.696930 104.264618 -310.497772
      vertex 85.944786 48.240776 -293.176300
      vertex 263.554840 140.827942 -267.032440
    endloop
  endfacet
  facet normal -0.524926 0.132687 0.840742
    outer loop
      vertex 184.696930 104.264618 -310.497772
      vertex 263.554840 140.827942 -267.032440
      vertex 254.357193 189.919174 -280.522766
    endloop
  endfacet
  facet normal -0.952977 0.277868 -0.120935
    outer loop
      vertex 271.045990 239.324448 -298.514954
      vertex 254.357193 189.919174 -280.522766
      vertex 310.843750 402.785248 -236.546143
    endloop
  endfacet
  facet normal -0.392755 0.443156 -0.805827
    outer loop
      vertex 85.944786 48.240776 -293.176300
      vertex 184.696930 104.264618 -310.497772
      vertex 170.546951 36.762268 -340.723358
    endloop
  endfacet
  facet normal -0.531873 0.436438 -0.725695
    outer loop
      vertex 170.546951 36.762268 -340.723358
      vertex 184.696930 104.264618 -310.497772
      vertex 279.412811 178.670120 -335.168488
    endloop
  endfacet
  facet normal 0.419141 -0.287841 -0.861086
    outer loop
      vertex 170.546951 36.762268 -340.723358
      vertex 279.412811 178.670120 -335.168488
      vertex 250.235443 65.710205 -311.610931
    endloop
  endfacet
  facet normal 0.579087 -0.307077 -0.755223
    outer loop
      vertex 250.235443 65.710205 -311.610931
      vertex 279.412811 178.670120 -335.168488
      vertex 334.885254 214.229019 -307.091919
    endloop
  endfacet
  facet normal 0.904619 -0.387621 0.177240
    outer loop
      vertex 334.885254 214.229019 -307.091919
      vertex 365.429749 312.525024 -248.016602
      vertex 297.865814 138.953125 -282.774933
    endloop
  endfacet
  facet normal 0.300506 -0.777829 -0.551976
    outer loop
      vertex 25.670515 -35.901981 -317.200378
      vertex 170.546951 36.762268 -340.723358
      vertex 153.266373 -5.074542 -291.175934
    endloop
  endfacet
  facet normal -0.749528 0.434926 0.499046
    outer loop
      vertex 184.696930 104.264618 -310.497772
      vertex 254.357193 189.919174 -280.522766
      vertex 271.045990 239.324448 -298.514954
    endloop
  endfacet
  facet normal -0.508296 0.392961 -0.766301
    outer loop
      vertex 279.412811 178.670120 -335.168488
      vertex 184.696930 104.264618 -310.497772
      vertex 271.045990 239.324448 -298.514954
    endloop
  endfacet
  facet normal -0.568867 0.366460 -0.736272
    outer loop
      vertex 279.412811 178.670120 -335.168488
      vertex 271.045990 239.324448 -298.514954
      vertex 324.779968 316.125427 -301.805908
    endloop
  endfacet
  facet normal -0.620694 0.405515 -0.671042
    outer loop
      vertex 324.779968 316.125427 -301.805908
      vertex 271.045990 239.324448 -298.514954
      vertex 310.843750 402.785248 -236.546143
    endloop
  endfacet
  facet normal 0.955225 -0.140251 -0.260528
    outer loop
      vertex 334.885254 214.229019 -307.091919
      vertex 367.858368 359.667877 -264.490540
      vertex 365.429749 312.525024 -248.016602
    endloop
  endfacet
  facet normal 0.855562 -0.481879 -0.189227
    outer loop
      vertex 297.865814 138.953125 -282.774933
      vertex 250.235443 65.710205 -311.610931
      vertex 334.885254 214.229019 -307.091919
    endloop
  endfacet
  facet normal -0.244559 0.557892 -0.793062
    outer loop
      vertex 324.779968 316.125427 -301.805908
      vertex 310.843750 402.785248 -236.546143
      vertex 356.431946 444.302948 -221.398026
    endloop
  endfacet
  facet normal 0.404717 0.087358 -0.910260
    outer loop
      vertex 279.412811 178.670120 -335.168488
      vertex 324.779968 316.125427 -301.805908
      vertex 334.885254 214.229019 -307.091919
    endloop
  endfacet
  facet normal 0.591666 0.100174 -0.799935
    outer loop
      vertex 334.885254 214.229019 -307.091919
      vertex 324.779968 316.125427 -301.805908
      vertex 367.858368 359.667877 -264.490540
    endloop
  endfacet
  facet normal -0.565806 -0.020150 0.824292
    outer loop
      vertex 310.843750 402.785248 -236.546143
      vertex 254.357193 189.919174 -280.522766
      vertex 315.636322 286.766937 -236.092484
    endloop
  endfacet
  facet normal -0.981754 -0.039828 0.185940
    outer loop
      vertex 310.843750 402.785248 -236.546143
      vertex 315.636322 286.766937 -236.092484
      vertex 321.607971 391.273682 -182.177277
    endloop
  endfacet
  facet normal -0.961608 -0.217141 -0.167808
    outer loop
      vertex 314.271484 505.716461 -33.542187
      vertex 339.599945 442.979126 -97.503105
      vertex 314.971405 477.102692 -0.527220
    endloop
  endfacet
  facet normal 0.991953 -0.084156 -0.094590
    outer loop
      vertex 367.858368 359.667877 -264.490540
      vertex 384.829498 450.201172 -167.063690
      vertex 365.429749 312.525024 -248.016602
    endloop
  endfacet
  facet normal -0.446106 0.695401 -0.563389
    outer loop
      vertex 310.843750 402.785248 -236.546143
      vertex 333.617462 498.043182 -137.000397
      vertex 356.431946 444.302948 -221.398026
    endloop
  endfacet
  facet normal 0.227367 0.848102 -0.478567
    outer loop
      vertex 356.431946 444.302948 -221.398026
      vertex 333.617462 498.043182 -137.000397
      vertex 372.293091 508.502777 -100.089485
    endloop
  endfacet
  facet normal 0.261532 0.465745 -0.845389
    outer loop
      vertex 367.858368 359.667877 -264.490540
      vertex 324.779968 316.125427 -301.805908
      vertex 356.431946 444.302948 -221.398026
    endloop
  endfacet
  facet normal -0.960295 -0.241954 0.138895
    outer loop
      vertex 310.843750 402.785248 -236.546143
      vertex 321.607971 391.273682 -182.177277
      vertex 314.271484 505.716461 -33.542187
    endloop
  endfacet
  facet normal 0.763551 -0.403863 0.503869
    outer loop
      vertex 365.429749 312.525024 -248.016602
      vertex 384.829498 450.201172 -167.063690
      vertex 364.596252 398.554657 -177.798676
    endloop
  endfacet
  facet normal 0.815483 0.346241 -0.463794
    outer loop
      vertex 384.829498 450.201172 -167.063690
      vertex 367.858368 359.667877 -264.490540
      vertex 356.431946 444.302948 -221.398026
    endloop
  endfacet
  facet normal 0.665640 0.620102 -0.415208
    outer loop
      vertex 384.829498 450.201172 -167.063690
      vertex 356.431946 444.302948 -221.398026
      vertex 372.293091 508.502777 -100.089485
    endloop
  endfacet
  facet normal -0.727053 -0.671104 0.144962
    outer loop
      vertex 364.596252 398.554657 -177.798676
      vertex 352.839203 454.653503 22.944874
      vertex 339.599945 442.979126 -97.503105
    endloop
  endfacet
  facet normal -0.886979 0.417757 -0.196843
    outer loop
      vertex 314.271484 505.716461 -33.542187
      vertex 333.617462 498.043182 -137.000397
      vertex 310.843750 402.785248 -236.546143
    endloop
  endfacet
  facet normal 0.906942 -0.388940 0.161809
    outer loop
      vertex 364.596252 398.554657 -177.798676
      vertex 384.829498 450.201172 -167.063690
      vertex 352.839203 454.653503 22.944874
    endloop
  endfacet
  facet normal -0.057175 0.974655 -0.216284
    outer loop
      vertex 372.293091 508.502777 -100.089485
      vertex 333.617462 498.043182 -137.000397
      vertex 364.567139 526.409790 -17.351488
    endloop
  endfacet
  facet normal -0.340298 0.930910 -0.132677
    outer loop
      vertex 314.271484 505.716461 -33.542187
      vertex 364.567139 526.409790 -17.351488
      vertex 333.617462 498.043182 -137.000397
    endloop
  endfacet
  facet normal 0.704653 -0.696599 0.134960
    outer loop
      vertex 352.839203 454.653503 22.944874
      vertex 384.829498 450.201172 -167.063690
      vertex 384.108795 499.010010 88.627319
    endloop
  endfacet
  facet normal -0.979583 0.181464 0.086530
    outer loop
      vertex 307.881439 366.419525 224.624344
      vertex 313.373291 377.200317 264.187225
      vertex 315.515686 461.955872 110.698433
    endloop
  endfacet
  facet normal -0.961654 0.245553 0.122170
    outer loop
      vertex 315.515686 461.955872 110.698433
      vertex 313.373291 377.200317 264.187225
      vertex 327.649536 497.095886 135.580490
    endloop
  endfacet
  facet normal -0.953704 0.297338 0.045159
    outer loop
      vertex 315.515686 461.955872 110.698433
      vertex 327.649536 497.095886 135.580490
      vertex 314.971405 477.102692 -0.527220
    endloop
  endfacet
  facet normal -0.939259 0.341168 0.037375
    outer loop
      vertex 314.971405 477.102692 -0.527220
      vertex 327.649536 497.095886 135.580490
      vertex 333.538300 524.056519 37.465569
    endloop
  endfacet
  facet normal 0.270906 0.942891 0.193822
    outer loop
      vertex 333.538300 524.056519 37.465569
      vertex 384.108795 499.010010 88.627319
      vertex 364.567139 526.409790 -17.351488
    endloop
  endfacet
  facet normal -0.275180 -0.213932 -0.937288
    outer loop
      vertex 327.067047 321.156067 226.014694
      vertex 372.683502 383.170715 198.467514
      vertex 288.246643 126.789612 281.775299
    endloop
  endfacet
  facet normal 0.189832 -0.305591 -0.933048
    outer loop
      vertex 327.067047 321.156067 226.014694
      vertex 288.246643 126.789612 281.775299
      vertex 234.768234 129.892456 269.878693
    endloop
  endfacet
  facet normal 0.205284 -0.162337 -0.965145
    outer loop
      vertex 234.768234 129.892456 269.878693
      vertex 288.246643 126.789612 281.775299
      vertex 209.928299 38.092037 280.036102
    endloop
  endfacet
  facet normal 0.214192 -0.164493 -0.962842
    outer loop
      vertex 234.768234 129.892456 269.878693
      vertex 209.928299 38.092037 280.036102
      vertex 129.414291 21.598724 264.942810
    endloop
  endfacet
  facet normal -0.065671 0.928885 0.364500
    outer loop
      vertex 108.110886 51.403389 291.463135
      vertex -39.198410 32.112537 314.083191
      vertex 104.428596 35.518265 331.281097
    endloop
  endfacet
  facet normal -0.646405 0.727375 0.230403
    outer loop
      vertex 108.110886 51.403389 291.463135
      vertex 104.428596 35.518265 331.281097
      vertex 229.494888 154.904388 305.261688
    endloop
  endfacet
  facet normal -0.812399 0.387114 0.436063
    outer loop
      vertex 229.494888 154.904388 305.261688
      vertex 229.285797 120.134254 335.739227
      vertex 313.373291 377.200317 264.187225
    endloop
  endfacet
  facet normal -0.428768 0.596953 0.678089
    outer loop
      vertex 229.494888 154.904388 305.261688
      vertex 104.428596 35.518265 331.281097
      vertex 229.285797 120.134254 335.739227
    endloop
  endfacet
  facet normal -0.117743 0.418891 0.900370
    outer loop
      vertex -39.198410 32.112537 314.083191
      vertex -15.031105 -8.119514 335.961304
      vertex 104.428596 35.518265 331.281097
    endloop
  endfacet
  facet normal -0.318785 0.349504 0.881035
    outer loop
      vertex 229.285797 120.134254 335.739227
      vertex 341.608551 301.135986 304.578064
      vertex 313.373291 377.200317 264.187225
    endloop
  endfacet
  facet normal -0.432101 0.683060 0.588827
    outer loop
      vertex 313.373291 377.200317 264.187225
      vertex 363.924591 458.586090 206.873047
      vertex 327.649536 497.095886 135.580490
    endloop
  endfacet
  facet normal -0.015549 0.148614 0.988773
    outer loop
      vertex 104.428596 35.518265 331.281097
      vertex -15.031105 -8.119514 335.961304
      vertex 178.702988 22.565170 334.395996
    endloop
  endfacet
  facet normal 0.117399 -0.705574 0.698844
    outer loop
      vertex 178.702988 22.565170 334.395996
      vertex -15.031105 -8.119514 335.961304
      vertex 37.669418 -37.986786 296.953247
    endloop
  endfacet
  facet normal 0.238929 -0.718685 -0.652996
    outer loop
      vertex 117.593735 -19.793167 306.173492
      vertex 37.669418 -37.986786 296.953247
      vertex 129.414291 21.598724 264.942810
    endloop
  endfacet
  facet normal 0.267543 -0.717276 -0.643378
    outer loop
      vertex 117.593735 -19.793167 306.173492
      vertex 129.414291 21.598724 264.942810
      vertex 209.928299 38.092037 280.036102
    endloop
  endfacet
  facet normal 0.763324 -0.412850 -0.496883
    outer loop
      vertex 347.801422 239.983154 279.214661
      vertex 288.246643 126.789612 281.775299
      vertex 372.683502 383.170715 198.467514
    endloop
  endfacet
  facet normal 0.183968 -0.815508 -0.548728
    outer loop
      vertex 372.683502 383.170715 198.467514
      vertex 349.204987 421.031433 134.328186
      vertex 379.021698 457.818298 89.652725
    endloop
  endfacet
  facet normal 0.126283 -0.613303 -0.779687
    outer loop
      vertex 37.669418 -37.986786 296.953247
      vertex 9.796803 -1.459939 263.706726
      vertex 129.414291 21.598724 264.942810
    endloop
  endfacet
  facet normal 0.522813 -0.636467 -0.567077
    outer loop
      vertex 372.683502 383.170715 198.467514
      vertex 327.067047 321.156067 226.014694
      vertex 349.204987 421.031433 134.328186
    endloop
  endfacet
  facet normal 0.925746 -0.123227 -0.357504
    outer loop
      vertex 379.021698 457.818298 89.652725
      vertex 352.839203 454.653503 22.944874
      vertex 384.108795 499.010010 88.627319
    endloop
  endfacet
  facet normal -0.933167 0.358018 0.031977
    outer loop
      vertex 313.373291 377.200317 264.187225
      vertex 307.881439 366.419525 224.624344
      vertex 229.494888 154.904388 305.261688
    endloop
  endfacet
  facet normal -0.506380 0.666772 -0.546804
    outer loop
      vertex 229.494888 154.904388 305.261688
      vertex 234.768234 129.892456 269.878693
      vertex 108.110886 51.403389 291.463135
    endloop
  endfacet
  facet normal -0.395884 -0.195363 -0.897279
    outer loop
      vertex 307.881439 366.419525 224.624344
      vertex 327.067047 321.156067 226.014694
      vertex 229.494888 154.904388 305.261688
    endloop
  endfacet
  facet normal -0.868163 0.334974 -0.366178
    outer loop
      vertex 229.494888 154.904388 305.261688
      vertex 327.067047 321.156067 226.014694
      vertex 234.768234 129.892456 269.878693
    endloop
  endfacet
  facet normal -0.451115 -0.884596 -0.118258
    outer loop
      vertex 314.971405 477.102692 -0.527220
      vertex 352.839203 454.653503 22.944874
      vertex 315.515686 461.955872 110.698433
    endloop
  endfacet
  facet normal 0.544705 -0.835331 0.074292
    outer loop
      vertex 178.702988 22.565170 334.395996
      vertex 117.593735 -19.793167 306.173492
      vertex 209.928299 38.092037 280.036102
    endloop
  endfacet
  facet normal 0.718556 -0.658147 0.224764
    outer loop
      vertex 178.702988 22.565170 334.395996
      vertex 209.928299 38.092037 280.036102
      vertex 292.866211 146.403961 332.044617
    endloop
  endfacet
  facet normal 0.734558 -0.652268 0.187002
    outer loop
      vertex 292.866211 146.403961 332.044617
      vertex 209.928299 38.092037 280.036102
      vertex 288.246643 126.789612 281.775299
    endloop
  endfacet
  facet normal 0.881552 -0.461571 0.099087
    outer loop
      vertex 292.866211 146.403961 332.044617
      vertex 288.246643 126.789612 281.775299
      vertex 347.801422 239.983154 279.214661
    endloop
  endfacet
  facet normal 0.981204 -0.189889 -0.034370
    outer loop
      vertex 375.430481 390.075684 238.739594
      vertex 347.801422 239.983154 279.214661
      vertex 372.683502 383.170715 198.467514
    endloop
  endfacet
  facet normal 0.989334 -0.138973 -0.043655
    outer loop
      vertex 375.430481 390.075684 238.739594
      vertex 372.683502 383.170715 198.467514
      vertex 384.108795 499.010010 88.627319
    endloop
  endfacet
  facet normal 0.992025 -0.123178 -0.026718
    outer loop
      vertex 384.108795 499.010010 88.627319
      vertex 372.683502 383.170715 198.467514
      vertex 379.021698 457.818298 89.652725
    endloop
  endfacet
  facet normal 0.808397 -0.153794 0.568191
    outer loop
      vertex 341.608551 301.135986 304.578064
      vertex 292.866211 146.403961 332.044617
      vertex 347.801422 239.983154 279.214661
    endloop
  endfacet
  facet normal 0.920982 -0.065989 0.383976
    outer loop
      vertex 341.608551 301.135986 304.578064
      vertex 347.801422 239.983154 279.214661
      vertex 375.430481 390.075684 238.739594
    endloop
  endfacet
  facet normal 0.928448 0.273064 0.251834
    outer loop
      vertex 363.924591 458.586090 206.873047
      vertex 375.430481 390.075684 238.739594
      vertex 384.108795 499.010010 88.627319
    endloop
  endfacet
  facet normal 0.043327 -0.596494 0.801447
    outer loop
      vertex 178.702988 22.565170 334.395996
      vertex 37.669418 -37.986786 296.953247
      vertex 117.593735 -19.793167 306.173492
    endloop
  endfacet
  facet normal 0.402613 0.440775 0.802259
    outer loop
      vertex 363.924591 458.586090 206.873047
      vertex 341.608551 301.135986 304.578064
      vertex 375.430481 390.075684 238.739594
    endloop
  endfacet
  facet normal -0.110565 0.615397 -0.780424
    outer loop
      vertex 9.796803 -1.459939 263.706726
      vertex 108.110886 51.403389 291.463135
      vertex 129.414291 21.598724 264.942810
    endloop
  endfacet
  facet normal -0.033217 0.049576 0.998218
    outer loop
      vertex 104.428596 35.518265 331.281097
      vertex 178.702988 22.565170 334.395996
      vertex 292.866211 146.403961 332.044617
    endloop
  endfacet
  facet normal -0.403959 0.429799 -0.807521
    outer loop
      vertex 234.768234 129.892456 269.878693
      vertex 129.414291 21.598724 264.942810
      vertex 108.110886 51.403389 291.463135
    endloop
  endfacet
  facet normal 0.189380 -0.328203 0.925429
    outer loop
      vertex 229.285797 120.134254 335.739227
      vertex 104.428596 35.518265 331.281097
      vertex 292.866211 146.403961 332.044617
    endloop
  endfacet
  facet normal -0.017224 0.180010 0.983514
    outer loop
      vertex 229.285797 120.134254 335.739227
      vertex 292.866211 146.403961 332.044617
      vertex 341.608551 301.135986 304.578064
    endloop
  endfacet
  facet normal 0.148301 0.506184 0.849579
    outer loop
      vertex 313.373291 377.200317 264.187225
      vertex 341.608551 301.135986 304.578064
      vertex 363.924591 458.586090 206.873047
    endloop
  endfacet
  facet normal 0.262220 0.898543 0.351939
    outer loop
      vertex 327.649536 497.095886 135.580490
      vertex 363.924591 458.586090 206.873047
      vertex 384.108795 499.010010 88.627319
    endloop
  endfacet
  facet normal 0.193180 0.943071 0.270737
    outer loop
      vertex 327.649536 497.095886 135.580490
      vertex 384.108795 499.010010 88.627319
      vertex 333.538300 524.056519 37.465569
    endloop
  endfacet
  facet normal -0.760641 -0.339407 -0.553379
    outer loop
      vertex 327.067047 321.156067 226.014694
      vertex 307.881439 366.419525 224.624344
      vertex 349.204987 421.031433 134.328186
    endloop
  endfacet
  facet normal -0.410028 -0.685152 -0.602033
    outer loop
      vertex 349.204987 421.031433 134.328186
      vertex 307.881439 366.419525 224.624344
      vertex 315.515686 461.955872 110.698433
    endloop
  endfacet
  facet normal -0.681063 -0.694541 -0.231875
    outer loop
      vertex 349.204987 421.031433 134.328186
      vertex 315.515686 461.955872 110.698433
      vertex 352.839203 454.653503 22.944874
    endloop
  endfacet
  facet normal 0.620973 -0.755765 -0.207873
    outer loop
      vertex 349.204987 421.031433 134.328186
      vertex 352.839203 454.653503 22.944874
      vertex 379.021698 457.818298 89.652725
    endloop
  endfacet
endsolid Mesh
